<svg width="20" height="20" viewBox="0 0 20 20" fill="none" xmlns="http://www.w3.org/2000/svg">
<path fill-rule="evenodd" clip-rule="evenodd" d="M10 18C14.4183 18 18 14.4183 18 10C18 5.58172 14.4183 2 10 2C5.58172 2 2 5.58172 2 10C2 14.4183 5.58172 18 10 18ZM9.92871 12C10.5742 12 11.2071 11.8215 11.7574 11.4842C12.3078 11.147 12.7542 10.6641 13.0472 10.089C13.3403 9.51384 13.4686 8.86888 13.4179 8.22539C13.3673 7.58191 13.1397 6.96496 12.7603 6.44275C12.3809 5.92055 11.8644 5.51344 11.2681 5.26642C10.6718 5.01941 10.0187 4.94212 9.38118 5.04309C8.74365 5.14407 8.14646 5.41938 7.65564 5.83858C7.16481 6.25778 6.79947 6.80455 6.60001 7.41844L8.50211 8.03648C8.5876 7.77338 8.74417 7.53905 8.95453 7.35939C9.16488 7.17973 9.42082 7.06174 9.69405 7.01847C9.96727 6.97519 10.2471 7.00832 10.5027 7.11418C10.7583 7.22005 10.9796 7.39452 11.1422 7.61832C11.3048 7.84212 11.4024 8.10653 11.4241 8.38231C11.4458 8.65809 11.3908 8.9345 11.2652 9.18099C11.1396 9.42747 10.9483 9.63442 10.7124 9.77896C10.4766 9.9235 10.2053 10 9.9287 10V8.5L9.9287 8.5V10L8.42871 10V12H9.9287H9.92871ZM8.42871 14H10.4287V16H8.42871V14Z" fill="#1A1D20"/>
</svg>
