<svg width="16" height="14" viewBox="0 0 16 14" fill="none" xmlns="http://www.w3.org/2000/svg">
<path fill-rule="evenodd" clip-rule="evenodd" d="M7 0H9V6.34358L10.8711 4.50534L12.2853 5.89474L8.74974 9.36825C8.72543 9.39214 8.70017 9.41454 8.67409 9.43545C8.43839 9.62447 8.13541 9.692 7.85163 9.63802C7.66254 9.60205 7.48197 9.51213 7.33552 9.36825L3.79999 5.89474L5.2142 4.50534L7 6.25981V0ZM2 9.08772H0V13L3.7964e-05 13.0088L0 13.0175C0 13.5601 0.439861 14 0.982456 14H0.995477L1 14L1.00452 14H14.9955L15 14L15.0045 14H15.0175C15.5601 14 16 13.5601 16 13.0175L16 13.0088L16 13V9.08772H14V12.0351H2V9.08772Z" fill="#526FEC"/>
</svg>
