<svg width="26" height="18" viewBox="0 0 26 18" fill="none" xmlns="http://www.w3.org/2000/svg">
<path fill-rule="evenodd" clip-rule="evenodd" d="M22.5718 0.775726C23.626 1.065 24.4563 1.91735 24.738 2.99976C25.25 4.96152 25.25 9.05469 25.25 9.05469C25.25 9.05469 25.25 13.1478 24.738 15.1096C24.4563 16.1921 23.626 17.0444 22.5718 17.3338C20.6614 17.8594 13 17.8594 13 17.8594C13 17.8594 5.3386 17.8594 3.42802 17.3338C2.37382 17.0444 1.54361 16.1921 1.26186 15.1096C0.75 13.1478 0.75 9.05469 0.75 9.05469C0.75 9.05469 0.75 4.96152 1.26186 2.99976C1.54361 1.91735 2.37382 1.065 3.42802 0.775726C5.3386 0.25 13 0.25 13 0.25C13 0.25 20.6614 0.25 22.5718 0.775726ZM10.7031 5.60981V13.2661L16.8281 9.43811L10.7031 5.60981Z" fill="current"/>
</svg>
