<svg width="26" height="22" viewBox="0 0 26 22" fill="none" xmlns="http://www.w3.org/2000/svg">
<path fill-rule="evenodd" clip-rule="evenodd" d="M4.61954 0.5H21.3805C23.5174 0.5 25.25 2.23848 25.25 4.38319V13.5954C25.25 15.7401 23.5169 17.4787 21.3805 17.4787H15.6071L13.6367 20.6866C13.6367 20.6866 13.6196 20.7237 13.5702 20.782C13.4542 20.9774 13.2434 21.1098 12.9997 21.1098C12.7548 21.1098 12.5429 20.9751 12.4275 20.7779C12.3845 20.7248 12.3633 20.6866 12.3633 20.6866L10.3929 17.4787H4.61954C2.48196 17.4787 0.75 15.7401 0.75 13.5954V4.38319C0.75 2.23848 2.48196 0.5 4.61954 0.5ZM4.93155 11.2217C4.93155 11.2217 5.28948 11.8676 6.19137 11.8676C6.19137 11.8676 8.30484 11.7899 8.30484 9.53569C8.30484 9.53569 8.22714 7.25027 6.19079 7.25027C6.19079 7.25027 5.52201 7.25027 4.91566 7.84072V5.46231H3.41564V11.7115H4.93155V11.2217ZM10.9169 11.7115V7.67001C10.9169 7.67001 10.9787 5.32219 8.78635 5.32219V6.76806C8.78635 6.76806 9.47104 6.73691 9.47104 8.01205V11.7115H10.9169ZM14.4521 11.8676C14.4521 11.8676 16.9875 11.8641 16.9875 9.58451C16.9875 9.58451 17.07 7.2697 14.4521 7.2697C14.4521 7.2697 11.9736 7.27022 11.9736 9.58451C11.9736 9.58451 11.8936 11.8676 14.4521 11.8676ZM20.3915 13.997C20.3915 13.997 22.5832 14.0205 22.5832 11.6539H22.5844V7.42212H21.1267V7.84134C21.1267 7.84134 20.6958 7.27022 19.868 7.27022C19.868 7.27022 17.7458 7.1808 17.7458 9.5692C17.7458 9.5692 17.7223 11.794 19.8092 11.794C19.8092 11.794 20.6599 11.8287 21.1261 11.2223V11.5726C21.1261 11.5726 21.2316 12.6682 20.1701 12.6682H19.8086V13.997H20.3915ZM4.89686 9.58521C4.89686 9.05304 5.32896 8.62149 5.86116 8.62149C6.39274 8.62149 6.82485 9.05304 6.82485 9.58521C6.82485 10.118 6.39334 10.5495 5.86116 10.5495C5.32896 10.5495 4.89686 10.1174 4.89686 9.58521ZM19.2658 9.58521C19.2658 9.05304 19.6973 8.62149 20.2295 8.62149C20.7617 8.62149 21.1932 9.05304 21.1932 9.58521C21.1932 10.118 20.7617 10.5495 20.2295 10.5495C19.6973 10.5495 19.2658 10.1174 19.2658 9.58521ZM14.4527 8.62149C13.9205 8.62149 13.4884 9.05304 13.4884 9.58521C13.4884 10.1174 13.9205 10.5495 14.4527 10.5495C14.9849 10.5495 15.4164 10.118 15.4164 9.58521C15.4164 9.05304 14.9849 8.62149 14.4527 8.62149Z" fill="current"/>
</svg>
