<svg width="24" height="24" viewBox="0 0 24 24" fill="none" xmlns="http://www.w3.org/2000/svg">
<path fill-rule="evenodd" clip-rule="evenodd" d="M13.5824 23.2658C13.0653 23.3378 12.537 23.375 12 23.375C11.8646 23.375 11.7299 23.3726 11.5957 23.3679C11.7299 23.3725 11.8646 23.3749 12 23.3749C12.5371 23.3749 13.0653 23.337 13.5824 23.2658ZM13.7772 23.237V15.2888H16.4278L16.9317 11.9999H13.7772V9.86596C13.7772 8.96699 14.2171 8.08884 15.6312 8.08884H17.0661V5.28943C17.0661 5.28943 15.7639 5.06709 14.5194 5.06709C11.9216 5.06709 10.2228 6.64112 10.2228 9.4933V11.9999H7.33389V15.2888H10.2228V23.237C4.78471 22.3838 0.625 17.6777 0.625 12C0.625 5.71776 5.71776 0.625 12 0.625C18.2822 0.625 23.375 5.71776 23.375 12C23.375 17.6777 19.2153 22.3838 13.7772 23.237Z" fill="current"/>
</svg>
