
<svg width="138" height="20" viewBox="0 0 138 20" fill="none" xmlns="http://www.w3.org/2000/svg">
<path d="M14.3088 19.7854H11.6944C11.4066 19.7854 11.1678 19.5471 11.1678 19.2599V11.2H3.66751V19.2599C3.66751 19.5471 3.42872 19.7854 3.14096 19.7854H0.526554C0.238786 19.7854 0 19.5471 0 19.2599V0.7081C0 0.420902 0.238786 0.207031 0.526554 0.207031H3.14096C3.42872 0.207031 3.66751 0.414792 3.66751 0.7081V7.97972H11.1617V0.7081C11.1617 0.420902 11.4005 0.207031 11.6883 0.207031H14.3027C14.5904 0.207031 14.8292 0.414792 14.8292 0.7081V19.2599C14.8292 19.5471 14.5904 19.7854 14.3027 19.7854H14.3088Z" fill="current"/>
<path d="M32.4444 19.7861H29.6463C29.4075 19.7861 29.1993 19.5784 29.1442 19.3401L27.9319 14.3355H21.8582L20.6459 19.3401C20.5908 19.5784 20.3826 19.7861 20.1438 19.7861H17.3457C17.0825 19.7861 16.8682 19.6028 16.8682 19.3401C16.8682 19.3156 16.8927 19.2606 16.8927 19.2056L21.2214 2.68866C21.8521 0.238313 23.7562 0 24.8889 0C26.0216 0 27.9258 0.238313 28.5564 2.68866L32.8852 19.2056C32.8852 19.2606 32.9097 19.3095 32.9097 19.3401C32.9097 19.6028 32.7015 19.7861 32.4321 19.7861H32.4444ZM25.3175 3.50137C25.2379 3.18362 25.1583 3.07974 24.8951 3.07974C24.6318 3.07974 24.5522 3.18362 24.4726 3.50137L22.5745 11.3291H27.2217L25.3236 3.50137H25.3175Z" fill="current"/>
<path d="M46.0615 19.6273C45.2165 19.7617 44.1879 19.9939 41.047 19.9939C37.6121 19.9939 34.9487 19.0712 34.9487 14.5921V5.40177C34.9487 0.922701 37.6121 0 41.047 0C44.1879 0 45.2165 0.238313 46.0615 0.366636C46.4594 0.421632 46.588 0.549954 46.588 0.922701V2.60923C46.588 2.89643 46.3492 3.13474 46.0615 3.13474H40.6735C39.1428 3.13474 38.5856 3.66025 38.5856 5.40177V8.24931H45.737C46.0247 8.24931 46.2635 8.48763 46.2635 8.77482V10.6691C46.2635 10.9563 46.0247 11.1946 45.737 11.1946H38.5856V14.5921C38.5856 16.3336 39.1428 16.8591 40.6735 16.8591H46.0615C46.3492 16.8591 46.588 17.0975 46.588 17.3847V19.0712C46.588 19.4378 46.4533 19.5723 46.0615 19.6273Z" fill="current"/>
<path d="M61.662 19.7854H50.1268C49.3614 19.7854 48.7798 19.5226 48.7798 18.8077V17.3595C48.7798 17.0417 48.8594 16.7545 49.1227 16.3574L57.4924 3.84284C57.5475 3.7634 57.572 3.68396 57.572 3.60453C57.572 3.47009 57.4924 3.39676 57.3087 3.39676H49.9676C49.6798 3.39676 49.4655 3.21345 49.4655 2.92014V0.7081C49.4655 0.420902 49.6737 0.207031 49.9676 0.207031H60.6089C61.3742 0.207031 62.011 0.524783 62.011 1.20917V2.73682C62.011 3.10346 61.8518 3.50065 61.6436 3.8184L53.4086 16.1251C53.329 16.229 53.3045 16.3329 53.3045 16.4123C53.3045 16.5162 53.3596 16.5712 53.5433 16.5712H61.6742C61.962 16.5712 62.2008 16.7545 62.2008 17.0478V19.2599C62.2008 19.5471 61.962 19.7854 61.6742 19.7854H61.662Z" fill="current"/>
<path d="M71.7704 19.9997C67.4172 19.9997 64.2456 17.5738 64.2456 11.781V8.22462C64.2456 2.42566 67.4111 0.00585938 71.7704 0.00585938C76.1298 0.00585938 79.2952 2.43177 79.2952 8.22462V11.781C79.2952 17.5799 76.1298 19.9997 71.7704 19.9997ZM75.5971 8.22462C75.5971 4.74769 74.3542 3.19559 71.7704 3.19559C69.1866 3.19559 67.9437 4.74769 67.9437 8.22462V11.781C67.9437 15.2579 69.1866 16.81 71.7704 16.81C74.3542 16.81 75.5971 15.2579 75.5971 11.781V8.22462Z" fill="current"/>
<path d="M89.2753 19.9997C84.9221 19.9997 81.7505 17.5738 81.7505 11.781V8.22462C81.7505 2.42566 84.9159 0.00585938 89.2753 0.00585938C93.6347 0.00585938 96.8001 2.43177 96.8001 8.22462V11.781C96.8001 17.5799 93.6347 19.9997 89.2753 19.9997ZM93.102 8.22462C93.102 4.74769 91.8591 3.19559 89.2753 3.19559C86.6915 3.19559 85.4486 4.74769 85.4486 8.22462V11.781C85.4486 15.2579 86.6915 16.81 89.2753 16.81C91.8591 16.81 93.102 15.2579 93.102 11.781V8.22462Z" fill="current"/>
<path d="M116.277 19.7852H113.613C113.375 19.7852 113.191 19.5224 113.191 19.2596V7.00788C113.191 6.82456 113.166 6.74512 113.111 6.74512C113.087 6.74512 113.032 6.82456 112.977 6.904L110.442 11.9391C110.283 12.2263 109.94 12.3852 109.597 12.3852H106.934C106.591 12.3852 106.248 12.2263 106.089 11.9391L103.529 6.904C103.474 6.82456 103.425 6.74512 103.395 6.74512C103.34 6.74512 103.315 6.82456 103.315 7.00788V19.2596C103.315 19.5224 103.131 19.7852 102.893 19.7852H100.229C99.9904 19.7852 99.7822 19.6507 99.7822 19.388V1.26391C99.7822 0.683407 100.26 0.212891 100.835 0.212891H103.003C103.425 0.212891 103.793 0.475646 103.982 0.842283L107.968 8.90217C108.103 9.14048 108.152 9.2688 108.256 9.2688C108.36 9.2688 108.415 9.13437 108.544 8.90217L112.53 0.842283C112.713 0.475646 113.087 0.212891 113.509 0.212891H115.677C116.258 0.212891 116.73 0.689518 116.73 1.26391V19.388C116.73 19.6507 116.522 19.7852 116.283 19.7852H116.277Z" fill="current"/>
<path fill-rule="evenodd" clip-rule="evenodd" d="M128.706 6.09855C128.706 3.94761 127.23 3.22656 124.445 3.22656H121.634V9.29439H124.445C127.23 9.29439 128.706 8.24948 128.706 6.09855Z" fill="#FF7133"/>
<path fill-rule="evenodd" clip-rule="evenodd" d="M121.634 12.4355V19.9577H129.055L124.647 12.4355H121.634Z" fill="#FF7133"/>
<path fill-rule="evenodd" clip-rule="evenodd" d="M136.959 0.0859375H121.665L132.918 6.09877C132.918 9.13574 131.296 10.9323 128.828 11.8183L133.843 19.9515H136.959C137.535 19.9515 138 19.4871 138 18.9127V1.12474C138 0.550343 137.535 0.0859375 136.959 0.0859375Z" fill="#FF7133"/>
<path d="M132.912 6.09877C132.912 1.50971 129.373 0.0859375 124.855 0.0859375H121.634V12.4355H124.647L129.055 19.9515H133.837L128.822 11.8183C131.29 10.9323 132.912 9.13574 132.912 6.09877ZM124.445 9.29461H121.634V3.22679H124.445C127.23 3.22679 128.706 3.95395 128.706 6.09877C128.706 8.24359 127.23 9.29461 124.445 9.29461Z" fill="white"/>
</svg>
