<svg width="24" height="28" viewBox="0 0 24 28" fill="none" xmlns="http://www.w3.org/2000/svg">
<path fill-rule="evenodd" clip-rule="evenodd" d="M1 0C0.447715 0 0 0.447715 0 1V28H24V1C24 0.447715 23.5523 0 23 0H1ZM20 3.5H4V7H20V3.5ZM8 12.25C8 13.2165 7.10457 14 6 14C4.89543 14 4 13.2165 4 12.25C4 11.2835 4.89543 10.5 6 10.5C7.10457 10.5 8 11.2835 8 12.25ZM6 19.25C7.10457 19.25 8 18.4665 8 17.5C8 16.5335 7.10457 15.75 6 15.75C4.89543 15.75 4 16.5335 4 17.5C4 18.4665 4.89543 19.25 6 19.25ZM8 22.75C8 23.7165 7.10457 24.5 6 24.5C4.89543 24.5 4 23.7165 4 22.75C4 21.7835 4.89543 21 6 21C7.10457 21 8 21.7835 8 22.75ZM12 14C13.1046 14 14 13.2165 14 12.25C14 11.2835 13.1046 10.5 12 10.5C10.8954 10.5 10 11.2835 10 12.25C10 13.2165 10.8954 14 12 14ZM14 17.5C14 18.4665 13.1046 19.25 12 19.25C10.8954 19.25 10 18.4665 10 17.5C10 16.5335 10.8954 15.75 12 15.75C13.1046 15.75 14 16.5335 14 17.5ZM12 24.5C13.1046 24.5 14 23.7165 14 22.75C14 21.7835 13.1046 21 12 21C10.8954 21 10 21.7835 10 22.75C10 23.7165 10.8954 24.5 12 24.5ZM20 12.25C20 13.2165 19.1046 14 18 14C16.8954 14 16 13.2165 16 12.25C16 11.2835 16.8954 10.5 18 10.5C19.1046 10.5 20 11.2835 20 12.25ZM17 15.75C16.4477 15.75 16 16.1977 16 16.75V23.5C16 24.0523 16.4477 24.5 17 24.5H19C19.5523 24.5 20 24.0523 20 23.5V16.75C20 16.1977 19.5523 15.75 19 15.75H17Z" />
</svg>
