<svg width="24" height="25" viewBox="0 0 24 25" fill="none" xmlns="http://www.w3.org/2000/svg">
<path d="M12 0.75C5.71732 0.75 0.625 5.46202 0.625 11.2716C0.625 15.5631 2.42137 17.6131 4.8856 19.4806L4.89797 19.4867V24.5234C4.89797 24.7615 5.17006 24.8976 5.35865 24.7553L9.6718 21.5522L9.76455 21.5923C10.4881 21.7252 11.2363 21.7964 12 21.7964C18.2827 21.7964 23.375 17.0843 23.375 11.2748C23.375 5.46202 18.2827 0.75 12 0.75ZM8.18771 13.9369C9.30386 13.9369 10.2562 13.269 10.5437 12.2394H12.1917C11.7897 14.2244 10.2438 15.523 8.18771 15.523C5.7977 15.523 3.90238 13.7389 3.90238 11.2593C3.90238 8.77646 5.7977 6.99558 8.18771 6.99558C10.2655 6.99558 11.8207 8.32199 12.2041 10.341H10.5592C10.3087 9.24336 9.32241 8.56008 8.18771 8.56008C6.57994 8.56008 5.51016 9.7072 5.51016 11.2593C5.51016 12.8145 6.72526 13.9369 8.18771 13.9369ZM19.0557 15.3622H17.5437V11.9518C17.5437 11.1665 17.0861 10.746 16.3843 10.746C15.599 10.746 15.095 11.2252 15.095 12.1992V15.3622H13.583V7.02032H15.095V10.1586C15.4567 9.60824 16.0442 9.33926 16.8388 9.33926C17.4849 9.33926 18.0106 9.54944 18.4218 9.9823C18.8454 10.4152 19.0557 11.0026 19.0557 11.7633V15.3622Z" fill="current"/>
</svg>
