<svg width="206" height="20" viewBox="0 0 206 20" fill="none" xmlns="http://www.w3.org/2000/svg">
<path fill-rule="evenodd" clip-rule="evenodd" d="M23.8155 11.3314L25.7147 3.50496C25.7938 3.1898 25.8729 3.08353 26.1365 3.08353C26.4001 3.08353 26.4792 3.1898 26.5583 3.50496L28.4574 11.3314H23.8155ZM29.802 2.68753C29.1693 0.238872 27.2701 0 26.1365 0C25.0028 0 23.1037 0.238872 22.471 2.68753L18.1454 19.2087C18.1454 19.2398 18.1363 19.2709 18.1287 19.2964C18.1235 19.3141 18.1191 19.3291 18.1191 19.3395C18.1191 19.6038 18.3309 19.7891 18.5945 19.7891H21.3891C21.6273 19.7891 21.8382 19.5784 21.891 19.3395L23.1037 14.3359H29.1693L30.3829 19.3395C30.4348 19.5784 30.6466 19.7891 30.8829 19.7891H33.6803C33.943 19.7891 34.1539 19.6038 34.1539 19.3395C34.1539 19.3291 34.1495 19.3141 34.1443 19.2964C34.1367 19.2709 34.1275 19.2398 34.1275 19.2087L29.802 2.68753ZM14.2939 0.211533H11.6829C11.3929 0.211533 11.1557 0.422249 11.1557 0.713799V7.9844H3.66552V0.713799C3.66552 0.422249 3.42825 0.211533 3.13824 0.211533H0.527283C0.237277 0.211533 0 0.422249 0 0.713799V19.2622C0 19.551 0.237277 19.789 0.527283 19.789H3.13824C3.42825 19.789 3.66552 19.551 3.66552 19.2622V11.1996H11.1557V19.2622C11.1557 19.551 11.3929 19.789 11.6829 19.789H14.2939C14.5839 19.789 14.8212 19.551 14.8212 19.2622V0.713799C14.8212 0.422249 14.5839 0.211533 14.2939 0.211533ZM48.2355 0.323222C48.3373 0.340215 48.434 0.356369 48.5284 0.371205C48.9238 0.422975 49.0556 0.553764 49.0556 0.923425V2.60915C49.0556 2.89888 48.8175 3.13685 48.5284 3.13685H43.1483C41.6182 3.13685 41.0646 3.66273 41.0646 5.40295V8.24852H48.2111C48.502 8.24852 48.7384 8.48648 48.7384 8.77531V10.6717C48.7384 10.9624 48.502 11.1994 48.2111 11.1994H41.0646V14.5972C41.0646 16.3375 41.6182 16.8633 43.1483 16.8633H48.5284C48.8175 16.8633 49.0556 17.1013 49.0556 17.391V19.0768C49.0556 19.4464 48.9238 19.5781 48.5284 19.6299C48.4348 19.6446 48.3389 19.6606 48.2381 19.6774C47.4304 19.8122 46.3074 19.9995 43.5165 19.9995C40.0882 19.9995 37.4254 19.0768 37.4254 14.5972V5.40295C37.4254 0.923425 40.0882 0.00063578 43.5165 0.00063578C46.3044 0.00063578 47.428 0.188332 48.2355 0.323222ZM65.2234 16.5743H57.0996C56.9151 16.5743 56.8623 16.5207 56.8623 16.4163C56.8623 16.3373 56.8896 16.231 56.9687 16.1275L65.1961 3.8224C65.4061 3.50451 65.5652 3.10942 65.5652 2.74157V1.21389C65.5652 0.528151 64.9325 0.21117 64.167 0.21117H53.5386C53.2495 0.21117 53.0386 0.422794 53.0386 0.713436V2.92686C53.0386 3.21568 53.2495 3.40097 53.5386 3.40097H60.8715C61.0551 3.40097 61.1342 3.47908 61.1342 3.61168C61.1342 3.68979 61.1088 3.76881 61.0551 3.84783L52.6959 16.3636C52.4323 16.7587 52.3532 17.0484 52.3532 17.3654V18.815C52.3532 19.5253 52.9323 19.7886 53.6968 19.7886H65.2234C65.5125 19.7886 65.7498 19.5507 65.7498 19.2619V17.0484C65.7498 16.7587 65.5125 16.5743 65.2234 16.5743ZM76.5643 16.8102C79.1488 16.8102 80.388 15.2571 80.388 11.7785V8.22263C80.388 4.74401 79.1488 3.18998 76.5643 3.18998C73.9797 3.18998 72.7405 4.74401 72.7405 8.22263V11.7785C72.7405 15.2571 73.9797 16.8102 76.5643 16.8102ZM69.0478 8.22263C69.0478 2.42432 72.2133 0.000181651 76.5643 0.000181651C80.9152 0.000181651 84.0808 2.42432 84.0808 8.22263V11.7785C84.0808 17.5759 80.9152 20 76.5643 20C72.2133 20 69.0478 17.5759 69.0478 11.7785V8.22263ZM98.7175 11.7785C98.7175 15.2571 97.4784 16.8102 94.8947 16.8102C92.3092 16.8102 91.0701 15.2571 91.0701 11.7785V8.22263C91.0701 4.74401 92.3092 3.18998 94.8947 3.18998C97.4784 3.18998 98.7175 4.74401 98.7175 8.22263V11.7785ZM94.8947 0.000181651C90.5428 0.000181651 87.3773 2.42432 87.3773 8.22263V11.7785C87.3773 17.5759 90.5428 20 94.8947 20C99.2457 20 102.41 17.5759 102.41 11.7785V8.22263C102.41 2.42432 99.2457 0.000181651 94.8947 0.000181651ZM119.448 0.211533H121.61C122.192 0.211533 122.667 0.685643 122.667 1.26602V19.393C122.667 19.6573 122.456 19.789 122.218 19.789H119.555C119.317 19.789 119.131 19.5256 119.131 19.2622V7.00893C119.131 6.82455 119.106 6.74553 119.053 6.74553C119.027 6.74553 118.974 6.82455 118.92 6.90539L116.39 11.9371C116.23 12.2269 115.887 12.384 115.545 12.384H112.882C112.539 12.384 112.197 12.2269 112.037 11.9371L109.48 6.90539C109.427 6.82455 109.374 6.74553 109.348 6.74553C109.295 6.74553 109.269 6.82455 109.269 7.00893V19.2622C109.269 19.5256 109.085 19.789 108.847 19.789H106.183C105.946 19.789 105.735 19.6573 105.735 19.393V1.26602C105.735 0.685643 106.209 0.211533 106.79 0.211533H108.952C109.374 0.211533 109.744 0.474928 109.927 0.844588L113.911 8.90718C113.932 8.94412 113.95 8.97848 113.967 9.01016C114.06 9.18182 114.11 9.27503 114.201 9.27503C114.29 9.27503 114.342 9.1802 114.436 9.00569C114.453 8.97525 114.471 8.94239 114.49 8.90718L118.473 0.844588C118.658 0.474928 119.027 0.211533 119.448 0.211533Z" fill="#FF7133"/>
<path d="M137.509 12.3735L141.45 19.6368H145.729L141.243 11.7769C143.447 10.9209 144.899 9.18288 144.899 6.25162C144.899 1.81582 141.735 0.440986 137.69 0.440986H131V19.6368H134.838V12.3735H137.509ZM137.327 9.33852H134.838V3.476H137.327C139.817 3.476 141.139 4.17639 141.139 6.25162C141.139 8.32685 139.817 9.33852 137.327 9.33852Z" fill="#353A3F"/>
<path d="M159.93 0.440986H148.157V19.6368H160.215V16.4202H151.995V11.284H158.737V8.06744H151.995V3.63165H159.93V0.440986Z" fill="#353A3F"/>
<path d="M171.812 16.7575V0.233463H168.752L163.151 5.05836L165.2 7.39299L168.363 4.51362L168.26 6.19974V16.7575H164.474V19.6368H175.157V16.7575H171.812Z" fill="#353A3F"/>
<path d="M191.071 10.013C191.071 3.11284 187.986 0 183.837 0C179.791 0 176.68 3.11284 176.68 10.013C176.68 16.8612 179.791 20 183.837 20C187.986 20 191.071 16.8612 191.071 10.013ZM187.441 10.013C187.441 15.5123 185.73 16.9909 183.837 16.9909C182.047 16.9909 180.31 15.5123 180.31 10.013C180.31 4.48768 182.047 2.98314 183.837 2.98314C185.73 2.98314 187.441 4.48768 187.441 10.013Z" fill="#353A3F"/>
<path d="M206 10.013C206 3.11284 202.914 0 198.765 0C194.72 0 191.608 3.11284 191.608 10.013C191.608 16.8612 194.72 20 198.765 20C202.914 20 206 16.8612 206 10.013ZM202.37 10.013C202.37 15.5123 200.658 16.9909 198.765 16.9909C196.976 16.9909 195.239 15.5123 195.239 10.013C195.239 4.48768 196.976 2.98314 198.765 2.98314C200.658 2.98314 202.37 4.48768 202.37 10.013Z" fill="#353A3F"/>
</svg>
